<svg width="366" height="32" viewBox="0 0 366 32" fill="none" xmlns="http://www.w3.org/2000/svg">
<path d="M100.943 7.41772C99.541 7.41772 98.1966 7.97445 97.2053 8.96541C96.2141 9.95639 95.6572 11.3004 95.6572 12.7019V15.6439H92.8286C92.6866 15.6439 92.5714 15.7589 92.5714 15.9009V19.7855C92.5714 19.9275 92.6866 20.0425 92.8286 20.0425H95.6572V28.0116C95.6572 28.1536 95.7723 28.2687 95.9143 28.2687H99.8C99.9421 28.2687 100.057 28.1536 100.057 28.0116V20.0425H102.911C103.029 20.0425 103.132 19.9622 103.16 19.8479L104.132 15.9633C104.172 15.8011 104.049 15.6439 103.882 15.6439H100.057V12.7019C100.057 12.467 100.151 12.2418 100.317 12.0758C100.483 11.9097 100.708 11.8164 100.943 11.8164H103.914C104.056 11.8164 104.171 11.7013 104.171 11.5594V7.67479C104.171 7.53282 104.056 7.41772 103.914 7.41772H100.943Z" fill="white"/>
<g clip-path="url(#clip0_64_5)">
<path d="M17.4572 10.3028C16.5812 10.2998 15.7133 10.4695 14.903 10.8021C14.0928 11.1348 13.3561 11.624 12.7351 12.2416C12.1141 12.8592 11.621 13.5931 11.2841 14.4014C10.9472 15.2098 10.773 16.0765 10.7715 16.9522V23.6702C10.7715 23.9429 10.8798 24.2045 11.0727 24.3973C11.2656 24.5902 11.5272 24.6985 11.8 24.6985H14.2C14.4728 24.6985 14.7344 24.5902 14.9273 24.3973C15.1202 24.2045 15.2286 23.9429 15.2286 23.6702V16.9522C15.2284 16.6408 15.2938 16.3328 15.4206 16.0483C15.5475 15.7638 15.7328 15.5093 15.9647 15.3012C16.1965 15.0932 16.4696 14.9363 16.7661 14.8408C17.0627 14.7454 17.376 14.7135 17.6857 14.7472C18.2412 14.8171 18.7516 15.0884 19.1203 15.5096C19.4889 15.9308 19.6901 16.4726 19.6857 17.0322V23.6702C19.6857 23.9429 19.7941 24.2045 19.987 24.3973C20.1799 24.5902 20.4415 24.6985 20.7143 24.6985H23.1143C23.3871 24.6985 23.6487 24.5902 23.8416 24.3973C24.0345 24.2045 24.1429 23.9429 24.1429 23.6702V16.9522C24.1414 16.0765 23.9672 15.2098 23.6302 14.4014C23.2933 13.5931 22.8002 12.8592 22.1793 12.2416C21.5583 11.624 20.8216 11.1348 20.0113 10.8021C19.201 10.4695 18.3331 10.2998 17.4572 10.3028Z" fill="white"/>
<path d="M7.68573 11.3308H4.60001C4.03195 11.3308 3.57144 11.7912 3.57144 12.3591V23.67C3.57144 24.2379 4.03195 24.6983 4.60001 24.6983H7.68573C8.25379 24.6983 8.7143 24.2379 8.7143 23.67V12.3591C8.7143 11.7912 8.25379 11.3308 7.68573 11.3308Z" fill="white"/>
<path d="M6.14287 9.27439C7.56303 9.27439 8.7143 8.12346 8.7143 6.70372C8.7143 5.28398 7.56303 4.13306 6.14287 4.13306C4.72271 4.13306 3.57144 5.28398 3.57144 6.70372C3.57144 8.12346 4.72271 9.27439 6.14287 9.27439Z" fill="white"/>
</g>
<path d="M363.354 11.2478C363.42 11.1555 363.322 11.0364 363.216 11.0774C362.464 11.3691 361.677 11.5659 360.874 11.6629C361.768 11.1292 362.457 10.3168 362.84 9.35496C362.879 9.25698 362.772 9.16949 362.679 9.22046C361.849 9.67899 360.953 10.0092 360.023 10.1993C359.984 10.2073 359.944 10.194 359.916 10.1652C359.218 9.42865 358.299 8.93823 357.297 8.76876C356.274 8.59574 355.222 8.76706 354.307 9.25586C353.392 9.74467 352.665 10.5233 352.24 11.4697C351.836 12.3695 351.727 13.3725 351.927 14.3358C351.942 14.4105 351.884 14.4811 351.807 14.4763C349.997 14.3639 348.228 13.8826 346.61 13.0612C344.996 12.2419 343.566 11.1022 342.409 9.71231C342.357 9.65063 342.26 9.6586 342.223 9.72962C341.862 10.4129 341.674 11.1745 341.674 11.9486C341.673 12.7191 341.862 13.478 342.225 14.1577C342.588 14.8374 343.113 15.4169 343.754 15.8445C343.074 15.826 342.408 15.658 341.801 15.3533C341.723 15.3141 341.63 15.37 341.634 15.4573C341.681 16.4733 342.054 17.4932 342.7 18.2758C343.387 19.1085 344.341 19.6784 345.4 19.8891C344.992 20.0131 344.569 20.0785 344.143 20.0833C343.911 20.0805 343.679 20.0635 343.45 20.0321C343.365 20.0204 343.295 20.1013 343.325 20.1819C343.641 21.0359 344.199 21.7812 344.933 22.3251C345.717 22.9067 346.664 23.2293 347.64 23.2481C345.991 24.5452 343.955 25.2531 341.857 25.2589C341.642 25.2596 341.426 25.2526 341.211 25.238C341.09 25.2298 341.034 25.3911 341.139 25.453C343.183 26.6659 345.52 27.3069 347.903 27.304C349.663 27.3223 351.408 26.9898 353.038 26.3261C354.668 25.6623 356.149 24.6807 357.395 23.4383C358.64 22.1959 359.626 20.7178 360.294 19.0903C360.962 17.4628 361.299 15.7185 361.286 13.9594V13.4112C361.286 13.3751 361.303 13.3412 361.332 13.3194C362.107 12.7343 362.788 12.0357 363.354 11.2478Z" fill="white"/>
<path fill-rule="evenodd" clip-rule="evenodd" d="M177.273 9.72045C181.085 9.42229 184.915 9.42229 188.727 9.72045L191.288 9.92073C192.714 10.0323 193.881 11.101 194.117 12.5117C194.707 16.0415 194.707 19.6448 194.117 23.1746C193.881 24.5853 192.714 25.654 191.288 25.7656L188.727 25.9659C184.915 26.264 181.085 26.264 177.273 25.9659L174.712 25.7656C173.286 25.654 172.119 24.5853 171.883 23.1746C171.293 19.6448 171.293 16.0415 171.883 12.5117C172.119 11.101 173.286 10.0323 174.712 9.92073L177.273 9.72045ZM180.714 20.6653V15.021C180.714 14.7546 181.005 14.59 181.233 14.7271L185.939 17.5493C186.161 17.6824 186.161 18.0039 185.939 18.137L181.233 20.9593C181.005 21.0964 180.714 20.9317 180.714 20.6653Z" fill="white"/>
<path d="M267.571 14.1301C265.52 14.1301 263.857 15.7926 263.857 17.8433C263.857 19.894 265.52 21.5565 267.571 21.5565C269.623 21.5565 271.286 19.894 271.286 17.8433C271.286 15.7926 269.623 14.1301 267.571 14.1301Z" fill="white"/>
<path fill-rule="evenodd" clip-rule="evenodd" d="M261.594 7.65371C265.535 7.21341 269.608 7.21341 273.549 7.65371C275.719 7.89612 277.469 9.60508 277.723 11.7816C278.195 15.809 278.195 19.8775 277.723 23.9049C277.469 26.0815 275.719 27.7905 273.549 28.0328C269.608 28.4732 265.535 28.4732 261.594 28.0328C259.424 27.7905 257.674 26.0815 257.42 23.9049C256.948 19.8775 256.948 15.809 257.42 11.7816C257.674 9.60508 259.424 7.89612 261.594 7.65371ZM273.286 10.9882C272.655 10.9882 272.143 11.4997 272.143 12.1307C272.143 12.7617 272.655 13.2732 273.286 13.2732C273.917 13.2732 274.429 12.7617 274.429 12.1307C274.429 11.4997 273.917 10.9882 273.286 10.9882ZM262.143 17.8433C262.143 14.8461 264.573 12.4163 267.571 12.4163C270.57 12.4163 273 14.8461 273 17.8433C273 20.8406 270.57 23.2703 267.571 23.2703C264.573 23.2703 262.143 20.8406 262.143 17.8433Z" fill="white"/>
<defs>
<clipPath id="clip0_64_5">
<rect width="27.4286" height="27.4204" fill="white" transform="translate(0.142883 0.705566)"/>
</clipPath>
</defs>
</svg>
